<?xml version="1.0" encoding="UTF-8" standalone="no"?>
<!-- Created with Inkscape (http://www.inkscape.org/) -->

<svg
   width="210mm"
   height="297mm"
   viewBox="0 0 210 297"
   version="1.1"
   id="svg5"
   inkscape:version="1.1.2 (b8e25be833, 2022-02-05)"
   sodipodi:docname="1.svg"
   xmlns:inkscape="http://www.inkscape.org/namespaces/inkscape"
   xmlns:sodipodi="http://sodipodi.sourceforge.net/DTD/sodipodi-0.dtd"
   xmlns="http://www.w3.org/2000/svg"
   xmlns:svg="http://www.w3.org/2000/svg">
  <sodipodi:namedview
     id="namedview7"
     pagecolor="#ffffff"
     bordercolor="#666666"
     borderopacity="1.0"
     inkscape:pageshadow="2"
     inkscape:pageopacity="0.0"
     inkscape:pagecheckerboard="0"
     inkscape:document-units="mm"
     showgrid="false"
     inkscape:zoom="1.2044227"
     inkscape:cx="163.97898"
     inkscape:cy="544.24415"
     inkscape:window-width="1920"
     inkscape:window-height="1009"
     inkscape:window-x="-8"
     inkscape:window-y="-8"
     inkscape:window-maximized="1"
     inkscape:current-layer="layer1" />
  <defs
     id="defs2" />
  <g
     inkscape:label="Layer 1"
     inkscape:groupmode="layer"
     id="layer1">
    <path
       d="m 37.302946,99.845118 c -0.367583,-0.02241 -0.733314,0.175622 -0.988017,0.549422 -0.177025,0.25828 -0.300916,0.60505 -0.368184,1.03112 h -0.464854 l -0.284065,3.77278 h 4.165018 l -0.294905,-3.77278 h -0.494003 c -0.05622,-0.37366 -0.164492,-0.69379 -0.321734,-0.94374 -0.238257,-0.37986 -0.581882,-0.614403 -0.949256,-0.636802 z m -0.02707,0.423802 c 0.211802,0.0129 0.440045,0.14594 0.623113,0.43801 0.112448,0.17903 0.199919,0.42448 0.251777,0.71873 h -1.783114 c 0.06248,-0.34136 0.166595,-0.6094 0.28947,-0.79082 0.191601,-0.28048 0.40695,-0.37883 0.618754,-0.36592 z"
       fill="#ffffff"
       id="path6377"
       style="fill:#9b26b6;stroke-width:0.264583;fill-opacity:1" />
    <path
       id="path6377-6-0"
       style="fill:#9b26b6;fill-opacity:1;stroke-width:0.264583"
       d="m 48.050868,101.89542 c -0.0562,-0.37365 -0.16449,-0.69379 -0.32173,-0.94373 -0.23826,-0.37986 -0.58188,-0.61441 -0.94926,-0.63681 -0.36758,-0.0224 -0.73331,0.17563 -0.98802,0.54942 -0.17702,0.25829 -0.30091,0.60506 -0.36818,1.03112 m 0.4209,0 c 0.0625,-0.34136 0.1666,-0.60939 0.28947,-0.79081 0.1916,-0.28049 0.40695,-0.37883 0.61876,-0.36592 0.2118,0.0129 0.44004,0.14593 0.62311,0.43801 0.11245,0.17903 0.19992,0.42448 0.25178,0.71872 m -2.706083,-0.0114 -0.28422,3.7729 h 4.165123 l -0.29508,-3.7729 h -0.49402 -0.10801 -0.11988 -0.19534 -1.78284 -0.19482 -0.12247 -0.10387 z m 0.490413,0.52917 h 0.078 0.12247 0.19482 1.78284 0.19534 0.11988 0.10801 0.005 l 0.21239,2.71456 h -3.02256 z" />
    <path
       d="m 39.258642,115.17079 c -0.43876,1.11085 -1.92215,1.93561 -2.74505,2.60361 -0.82289,-0.668 -2.30629,-1.49276 -2.74506,-2.60361 -0.78567,-1.9891 1.41138,-3.68378 2.74506,-2.00066 1.33371,-1.68312 3.53073,0.0115 2.74505,2.00066 z"
       fill="#ffffff"
       id="path6399"
       style="fill:#9b26b6;fill-opacity:1;stroke-width:0.264583" />
    <path
       style="color:#000000;fill:#9b26b6;fill-opacity:1;stroke:none;stroke-width:0.499999;stroke-miterlimit:4;stroke-dasharray:none;stroke-opacity:1;-inkscape-stroke:none"
       d="m 46.40107,112.79959 c -0.374839,-0.046 -0.748376,0.0686 -1.054716,0.29766 -0.613066,0.4584 -0.960107,1.38023 -0.573092,2.36006 0.220915,0.55929 0.688222,1.02736 1.224215,1.46192 0.264704,0.21463 0.53923,0.41378 0.783932,0.59015 0.244219,0.17602 0.416675,0.30052 0.571541,0.4191 l 0.151929,0.11627 0.151928,-0.11627 c 0.15491,-0.1186 0.327325,-0.24308 0.571542,-0.4191 0.244703,-0.17637 0.519226,-0.37552 0.783931,-0.59015 0.535965,-0.43456 1.011275,-0.92264 1.302246,-1.65933 0.319815,-0.80971 -0.03804,-1.70426 -0.651123,-2.16265 -0.306325,-0.22907 -0.679887,-0.34362 -1.054716,-0.29766 -0.371378,0.0455 -0.762824,0.25584 -1.092439,0.67179 l -0.01137,0.0145 -0.01137,-0.0145 c -0.329607,-0.41595 -0.721068,-0.62627 -1.09244,-0.67179 z m -0.06098,0.49609 c 0.234184,0.0287 0.498307,0.15387 0.76171,0.48628 l 0.403077,0.50901 0.403076,-0.50901 c 0.26342,-0.33242 0.527511,-0.45756 0.76171,-0.48628 0.236411,-0.029 0.47894,0.0408 0.694532,0.20206 0.43038,0.32178 0.707636,1.01513 0.485241,1.5782 -0.251239,0.63609 -0.644581,1.04389 -1.151867,1.4552 -0.250756,0.20332 -0.517994,0.39692 -0.761711,0.57258 -0.180752,0.13028 -0.30308,0.22076 -0.431498,0.31626 -0.128223,-0.0953 -0.250074,-0.18624 -0.430465,-0.31626 -0.243716,-0.17566 -0.510959,-0.36926 -0.76171,-0.57258 -0.507306,-0.4113 -0.908729,-0.83928 -1.073837,-1.25728 -0.311376,-0.78833 -0.02316,-1.45432 0.407211,-1.77612 0.215629,-0.16123 0.458103,-0.23104 0.694531,-0.20206 z"
       id="path2428-5-7" />
    <path
       style="color:#000000;fill:#9b26b6;fill-opacity:1;stroke:none;stroke-width:0.499999;stroke-miterlimit:4;stroke-dasharray:none;stroke-opacity:1;-inkscape-stroke:none"
       d="m 57.108124,112.52282 c -0.374839,-0.046 -0.748376,0.0686 -1.054716,0.29765 -0.613066,0.45841 -0.960107,1.38024 -0.573092,2.36007 0.220915,0.55929 0.688222,1.02736 1.224215,1.46192 0.264704,0.21463 0.53923,0.41378 0.783932,0.59015 0.244219,0.17602 0.416675,0.30052 0.571541,0.41909 l 0.151929,0.11628 0.151928,-0.11628 c 0.15491,-0.11859 0.327325,-0.24307 0.571542,-0.41909 0.244703,-0.17637 0.519225,-0.37552 0.783935,-0.59015 0.53596,-0.43456 1.01127,-0.92264 1.30224,-1.65933 0.31982,-0.80971 -0.038,-1.70427 -0.65112,-2.16266 -0.30633,-0.22906 -0.67989,-0.34361 -1.054717,-0.29765 -0.371378,0.0455 -0.762824,0.25584 -1.092439,0.67179 l -0.01137,0.0145 -0.01137,-0.0145 c -0.329607,-0.41595 -0.721068,-0.62627 -1.09244,-0.67179 z m -0.06098,0.49609 c 0.234184,0.0287 0.498307,0.15387 0.76171,0.48628 l 0.403077,0.50901 0.403076,-0.50901 c 0.26342,-0.33242 0.527511,-0.45757 0.76171,-0.48628 0.236411,-0.029 0.478941,0.0408 0.694531,0.20206 0.43038,0.32178 0.70764,1.01513 0.48524,1.5782 -0.25123,0.63609 -0.64458,1.04389 -1.151865,1.4552 -0.250756,0.20332 -0.517994,0.39692 -0.761711,0.57258 -0.180752,0.13028 -0.30308,0.22076 -0.431498,0.31626 -0.128223,-0.0954 -0.250074,-0.18624 -0.430465,-0.31626 -0.243716,-0.17566 -0.510959,-0.36926 -0.76171,-0.57258 -0.507306,-0.4113 -0.908729,-0.83928 -1.073837,-1.25728 -0.311376,-0.78833 -0.02317,-1.45432 0.407211,-1.77612 0.215629,-0.16123 0.458103,-0.23104 0.694531,-0.20206 z"
       id="path2428-5" />
    <path
       d="m 33.803031,129.1792 c -0.178871,-0.11391 -0.207283,-0.22225 -0.186239,-0.7193 0.02104,-0.31446 0.04207,-0.44921 0.155701,-0.69649 0.14941,-0.32906 0.445293,-0.67519 0.7035,-0.82068 0.15993,-0.0896 0.159933,-0.0895 0.2984,0.0136 0.306604,0.22833 0.551328,0.30649 0.953891,0.30453 0.400672,-0.002 0.658892,-0.0847 0.957078,-0.30692 0.134673,-0.10054 0.136763,-0.10059 0.295433,-0.0113 0.24601,0.13865 0.539803,0.47319 0.695087,0.79161 0.117846,0.24014 0.143113,0.35732 0.159941,0.69887 0.02527,0.51681 0,0.63074 -0.183092,0.74602 -0.13888,0.088 -0.234844,0.0927 -1.924865,0.0927 -1.689803,0 -1.787001,-0.005 -1.924835,-0.0927 z m 1.330801,-5.0697 c 0.185184,-0.1136 0.256712,-0.12931 0.593201,-0.12931 0.336277,0 0.408456,0.0157 0.593018,0.12931 0.890985,0.548 0.879211,1.8522 -0.02103,2.32948 -0.243903,0.1294 -0.630073,0.18132 -1.010544,0.0762 -0.38068,-0.10517 -0.75483,-0.55882 -0.80744,-1.09306 -0.05261,-0.53424 0.202044,-1.03568 0.652799,-1.31259 z"
       fill="#ffffff"
       id="path6388"
       style="fill:#9b26b6;fill-opacity:1;stroke-width:0.264583" />
    <path
       id="path6388-0-1-1"
       style="color:#000000;fill:#9b26b6;fill-opacity:1;stroke:none;stroke-width:0.265001;stroke-miterlimit:4;stroke-dasharray:none;stroke-opacity:1;-inkscape-stroke:none"
       d="m 46.396251,123.99687 c -0.78813,0 -1.43196,0.64933 -1.43196,1.44125 0,0.79192 0.64383,1.44178 1.43196,1.44178 0.78813,0 1.42937,-0.64986 1.42937,-1.44178 0,-0.79192 -0.64124,-1.44125 -1.42937,-1.44125 z m 0,0.49971 c 0.51523,0 0.92966,0.41719 0.92966,0.94154 0,0.52435 -0.41443,0.94155 -0.92966,0.94155 -0.51523,0 -0.93173,-0.4172 -0.93173,-0.94155 0,-0.52435 0.4165,-0.94154 0.93173,-0.94154 z m 1.01906,2.2009 c -0.1415,0.005 -0.20615,0.0739 -0.26975,0.12144 -0.24796,0.18475 -0.40768,0.23662 -0.74931,0.23822 -0.34453,0.002 -0.4854,-0.0438 -0.74363,-0.23616 -0.0649,-0.0483 -0.12743,-0.11644 -0.27026,-0.12299 -0.14284,-0.007 -0.20563,0.051 -0.28061,0.093 h -5.3e-4 c -0.31851,0.17948 -0.60064,0.52229 -0.76481,0.88367 0,0 0,5.3e-4 0,5.3e-4 -0.11546,0.25172 -0.14732,0.43848 -0.16743,0.73898 l -5.3e-4,0.004 v 0.003 c -0.0101,0.23849 -0.0145,0.39302 0.0248,0.54466 0.0393,0.15165 0.15654,0.28143 0.26562,0.35089 0.0427,0.0272 0.1132,0.0625 0.19068,0.0806 0.0777,0.0181 0.16269,0.0265 0.28784,0.0326 0.2503,0.012 0.6676,0.0129 1.45986,0.0129 0.79237,0 1.20969,-8e-4 1.45986,-0.0129 0.12508,-0.006 0.20972,-0.0145 0.28732,-0.0326 0.0774,-0.0181 0.14796,-0.0531 0.19069,-0.0801 0.11285,-0.0711 0.23061,-0.20608 0.2682,-0.36122 0.0376,-0.15515 0.0317,-0.31454 0.0196,-0.56172 -0.0162,-0.32946 -0.0569,-0.51185 -0.17518,-0.75293 v -5.3e-4 c -0.1698,-0.34801 -0.44673,-0.67698 -0.75293,-0.84955 h -5.3e-4 c -0.0748,-0.0421 -0.13755,-0.0989 -0.27905,-0.0935 z m -2.06034,0.52503 c 0.3163,0.23529 0.63405,0.33686 1.04386,0.33486 0.40782,-0.002 0.7314,-0.10515 1.04128,-0.33486 0.004,0.002 0.005,0.003 0.009,0.005 0.15497,0.0875 0.42854,0.38481 0.54984,0.63355 v 5.3e-4 c 0.10253,0.20892 0.10923,0.24637 0.12454,0.55707 0.0116,0.23728 0.006,0.37375 -0.006,0.42013 -0.0113,0.0464 0.01,0.0183 -0.0491,0.0553 h -5.3e-4 l -5.3e-4,5.3e-4 c -0.0224,0.0142 -0.0113,0.0101 -0.0367,0.016 -0.0254,0.006 -0.0862,0.0148 -0.19792,0.0202 -0.22342,0.0108 -0.64366,0.0119 -1.43557,0.0119 -0.7918,0 -1.212,-0.001 -1.43557,-0.0119 -0.11179,-0.005 -0.17316,-0.0143 -0.19844,-0.0202 -0.0253,-0.006 -0.0137,-0.002 -0.0357,-0.0155 h -5.3e-4 v -5.3e-4 c -0.0586,-0.0373 -0.0392,-0.0119 -0.0501,-0.0543 -0.0109,-0.042 -0.018,-0.17095 -0.009,-0.3948 0.0191,-0.28535 0.0269,-0.35254 0.12351,-0.56276 v -5.3e-4 l 5.3e-4,-5.3e-4 c 0.11577,-0.25495 0.38789,-0.56039 0.55345,-0.65422 l 10e-4,-5.3e-4 c 0.004,-0.002 0.005,-0.002 0.008,-0.004 z" />
  </g>
</svg>
